<?xml version="1.0" encoding="UTF-8"?>
<!-- SVG HTML5 Logo Small by F1LT3R at SignedOn, Inc: http://signedon.com -->
<svg version="1.1" xmlns="http://www.w3.org/2000/svg" x="0px" y="0px" width="171" height="242" viewBox="0, 0, 171, 242">
    <path d="M0.023,47.491 L170.463,47.491 L154.935,221.438 L85.139,240.788 L15.534,221.465 z" fill="#E44D26" id="darkshade"/>
    <path d="M154.911,61.716 L85.243,61.716 L85.243,225.998 L141.642,210.362 z" fill="#F16529" id="lightshade"/>
    
    <path d="M15.881,0.212 L26.724,0.212 L26.724,10.925 L36.643,10.925 L36.643,0.212 L47.487,0.212 L47.487,32.654 L36.644,32.654 L36.644,21.791 L26.725,21.791 L26.725,32.654 L15.882,32.654 L15.882,0.212 z" fill="#000000"/>
    <path d="M61.746,10.97 L52.2,10.97 L52.2,0.212 L82.141,0.212 L82.141,10.97 L72.591,10.97 L72.591,32.654 L61.747,32.654 L61.747,10.97 z" fill="#000000"/>
    <path d="M86.893,0.212 L98.199,0.212 L105.154,11.611 L112.102,0.212 L123.413,0.212 L123.413,32.654 L112.615,32.654 L112.615,16.574 L105.154,28.109 L104.968,28.109 L97.502,16.574 L97.502,32.654 L86.893,32.654 L86.893,0.212 z" fill="#000000"/>
    <path d="M128.81,0.212 L139.656,0.212 L139.656,21.931 L154.905,21.931 L154.905,32.654 L128.81,32.654 L128.81,0.212 z" fill="#000000"/>      
    
    <path d="M31.739,83.053 L32.25,88.778 L37.494,147.577 L85.243,147.577 L85.243,126.24 L57.008,126.24 L55.058,104.391 L85.243,104.391 L85.243,83.053 L85.169,83.053 z" fill="#EBEBEB"/>
    <path d="M41.437,191.749 L85.145,203.882 L85.243,203.855 L85.243,181.656 L85.149,181.68 L61.386,175.264 L59.867,158.246 L48.32,158.246 L38.448,158.246 z" fill="#EBEBEB"/>
    <path d="M129.017,126.24 L85.169,126.24 L85.169,147.577 L111.444,147.577 L108.967,175.25 L85.169,181.673 L85.169,203.872 L128.912,191.749 L129.233,188.144 L134.247,131.97 L134.767,126.24 z" fill="#FFFFFF"/>
    <path d="M136.709,104.391 L137.137,99.595 L138.109,88.778 L138.619,83.053 L85.169,83.053 L85.169,96.306 L85.169,104.339 L85.169,104.391 L136.64,104.391 L136.64,104.391 z" fill="#FFFFFF"/>  
</svg>
